<?xml version="1.0" encoding="UTF-8"?>
<svg id="Capa_1" xmlns="http://www.w3.org/2000/svg" version="1.1" viewBox="0 0 300 300">
  <!-- Generator: Adobe Illustrator 29.5.1, SVG Export Plug-In . SVG Version: 2.1.0 Build 141)  -->
  <defs>
    <style>
      .st0 {
        stroke: #8b5fa5;
      }

      .st0, .st1 {
        fill: none;
        stroke-linecap: round;
        stroke-miterlimit: 10;
        stroke-width: 11px;
      }

      .st2 {
        fill: #8b5fa5;
      }

      .st1 {
        stroke: #087533;
      }

      .st3 {
        display: none;
      }
    </style>
  </defs>
  <g id="Capa_11" data-name="Capa_1" class="st3">
    <path class="st1" d="M33.6,208.58c-2.6-5.6-25.74-57.68,2.92-110.4,32.46-59.7,100.5-63.48,103.82-63.61,45.07-.35,86.82,23.09,108.94,61.41,30.67,53.15,7.56,107.14,5.12,112.59"/>
    <path class="st1" d="M67.96,250.26c7.89,6.1,42.62,31.52,90.66,26.32,31.96-3.46,54.08-18.78,63.61-26.32"/>
    <line class="st1" x1="145.09" y1="50.42" x2="145.09" y2="74.3"/>
    <line class="st1" x1="250.74" y1="157.51" x2="225.88" y2="157.51"/>
    <line class="st1" x1="62.6" y1="157.51" x2="40.18" y2="157.51"/>
    <line class="st1" x1="145.09" y1="241" x2="145.09" y2="259.52"/>
    <polyline class="st1" points="93.3 126.45 145.09 163.5 214.18 91.85"/>
    <polygon class="st1" points="216.74 184.84 197 208.73 216.74 232.61 237.45 208.73 216.74 184.84"/>
    <polygon class="st1" points="72.47 184.84 52.73 208.73 72.47 232.61 93.19 208.73 72.47 184.84"/>
  </g>
  <g id="Capa_2">
    <path class="st0" d="M204.67,258.97c-8.42,5.67-27.52,16.84-54.14,18.2-22.9,1.17-41.58-5.42-54.08-11.79-7.13-3.63-12.25-7.2-15-9.22"/>
    <path class="st0" d="M57.68,76.16c6.65,1.35,16.92,2.85,29.37,2.18,21.84-1.18,25.52-7.72,41.54-8.87,26.75-1.92,33.46,15.06,60.21,14.94,10.33-.05,23.98-2.65,40.07-12.94"/>
    <path class="st0" d="M146.06,113.34c14.11-1.68,25.42-3.94,33.14-5.69,16.75-3.8,19.21-5.81,28.01-5.51,2.19.07,6.25.34,29.87,6.53,7.17,1.88,13.11,3.51,17.27,4.67"/>
    <path class="st0" d="M178.07,128.96c-27.48,6.74-47.09,3.67-59.74-.22-23.4-7.19-37.14-21.54-60.64-19.14-10.61,1.08-18.87,5.14-23.84,8.07"/>
    <path class="st0" d="M30.96,155.46c6.92-1.55,17.6-3.22,30.42-1.98,14.37,1.38,21.34,5.44,36.41,8.87,8.95,2.04,22.21,4.19,39.21,3.73"/>
    <path class="st0" d="M211.21,156.62c2.8.02,6.89-.18,11.67-1.27,8.11-1.85,11.34-4.7,16.34-6.07,4.91-1.34,12.26-1.46,22.81,4.2"/>
    <path class="st0" d="M256.75,190.3c-20.94-11.87-36.96-12.94-47.88-11.61-10.68,1.3-16,4.84-32.21,8.87-16.46,4.09-30.41,5.26-39.67,5.6"/>
    <path class="st0" d="M127.66,224.43c-6.36-.79-15.98-2.48-27.07-6.53-14.72-5.38-19.59-10.36-30.81-12.6-6.89-1.37-17.17-1.91-30.81,2.8-2.73-6.12-25.03-58.44,3.73-111.09,2.17-3.98,35.09-61.85,99.42-63.48,51.13-1.29,93.76,33.66,111.09,75.61,23.83,57.69-7.89,110.02-11.2,115.29-5.05.52-12.56.87-21.47-.47-10.22-1.53-14.18-4.07-21.47-5.13-6.95-1.02-17.07-.73-30.34,5.6"/>
    <path class="st0" d="M81.45,256.17c14.98,3.1,25.98,1.49,33.14-.47,12.33-3.37,14.63-8.13,25.2-8.87,10.91-.76,15.52,3.82,29.87,7.93,7.81,2.24,19.55,4.64,35.01,4.2"/>
  </g>
  <g id="Capa_3" class="st3">
    <polygon class="st0" points="148.38 31.43 126.43 134.91 23.47 157.9 124.86 179.85 148.38 279.15 171.9 179.33 275.38 155.29 171.37 131.25 148.38 31.43"/>
    <polyline class="st0" points="169.66 123.8 202.21 107.73 189.81 135.51"/>
    <polyline class="st0" points="129.25 121.62 97.16 107.73 113.21 137.86"/>
    <polyline class="st0" points="185.93 176.07 202.21 210.16 168.65 193.12"/>
    <polyline class="st0" points="110.84 176.82 97.16 207.03 128 193.12"/>
    <circle class="st2" cx="82.14" cy="78.59" r="7.97"/>
    <circle class="st2" cx="210.18" cy="78.59" r="7.97"/>
    <circle class="st2" cx="221.02" cy="237.34" r="7.97"/>
    <circle class="st2" cx="149.45" cy="139.22" r="7.97"/>
    <circle class="st2" cx="149.45" cy="184.04" r="7.97"/>
    <circle class="st2" cx="174.51" cy="160.51" r="7.97"/>
    <circle class="st2" cx="124.34" cy="160.51" r="7.97"/>
    <circle class="st2" cx="94.03" cy="245.31" r="7.97"/>
    <circle class="st2" cx="207.37" cy="157.71" r="5.16"/>
    <circle class="st2" cx="149.45" cy="105.64" r="5.16"/>
    <circle class="st2" cx="90.11" cy="157.71" r="5.16"/>
    <circle class="st2" cx="149.45" cy="212.19" r="5.16"/>
  </g>
</svg>